<?xml version="1.0" encoding="UTF-8" standalone="no"?>
<!-- Created with Inkscape (http://www.inkscape.org/) -->

<svg
   xmlns:dc="http://purl.org/dc/elements/1.1/"
   xmlns:cc="http://creativecommons.org/ns#"
   xmlns:rdf="http://www.w3.org/1999/02/22-rdf-syntax-ns#"
   xmlns:svg="http://www.w3.org/2000/svg"
   xmlns="http://www.w3.org/2000/svg"
   xmlns:xlink="http://www.w3.org/1999/xlink"
   xmlns:sodipodi="http://sodipodi.sourceforge.net/DTD/sodipodi-0.dtd"
   xmlns:inkscape="http://www.inkscape.org/namespaces/inkscape"
   id="svg2"
   viewBox="0 0 420.00001 279.79154"
   version="1.1"
   inkscape:version="0.91 r13725"
   sodipodi:docname="cloud-drive_Juhele.svg"
   width="63"
   height="34"
   inkscape:export-filename="/media/sdb1/_GRAFIKA/Cedulky_kaktus,kytka/cloud_drive/cloud-drive_Juhele.png"
   inkscape:export-xdpi="116"
   inkscape:export-ydpi="116">
  <title
     id="title13627">cloud drive</title>
  <defs
     id="defs4">
    <linearGradient
       id="linearGradient8302"
       inkscape:collect="always">
      <stop
         id="stop8304"
         style="stop-color:#ffffff"
         offset="0" />
      <stop
         id="stop8306"
         style="stop-color:#ffffff;stop-opacity:0"
         offset="1" />
    </linearGradient>
    <linearGradient
       id="linearGradient1546">
      <stop
         id="stop1547"
         offset="0"
         stop-color="#000" />
      <stop
         id="stop1548"
         offset="1"
         stop-color="#9a9a9a" />
    </linearGradient>
    <linearGradient
       id="linearGradient1502">
      <stop
         id="stop1503"
         offset="0"
         stop-opacity="0"
         stop-color="#000000" />
      <stop
         id="stop1506"
         offset="1"
         stop-opacity="0.28125"
         stop-color="#000000" />
    </linearGradient>
    <linearGradient
       id="linearGradient1494">
      <stop
         id="stop1495"
         offset="0"
         stop-color="#9d8f6a" />
      <stop
         id="stop1496"
         offset="0.496198"
         stop-color="#ffffff" />
      <stop
         id="stop1498"
         offset="0.525396"
         stop-color="#bfb5a5" />
      <stop
         id="stop1497"
         offset="1"
         stop-color="#f7f7f7" />
    </linearGradient>
    <linearGradient
       id="linearGradient1461">
      <stop
         id="stop1462"
         offset="0"
         stop-opacity="0"
         stop-color="#ffffff" />
      <stop
         id="stop1464"
         offset="0.5"
         stop-color="#ffffff" />
      <stop
         id="stop1463"
         offset="1"
         stop-opacity="0"
         stop-color="#ffffff" />
    </linearGradient>
    <linearGradient
       id="linearGradient1454">
      <stop
         id="stop1455"
         offset="0"
         stop-color="#000" />
      <stop
         id="stop1456"
         offset="1"
         stop-color="#fff" />
    </linearGradient>
    <linearGradient
       id="linearGradient1457"
       x1="27.779785"
       x2="9.548852"
       xlink:href="#linearGradient8302"
       y1="212.73026"
       y2="226.58546"
       gradientTransform="scale(1.7094086,0.58499763)"
       gradientUnits="userSpaceOnUse" />
    <linearGradient
       id="linearGradient1458"
       x1="53.967533"
       x2="39.243263"
       xlink:href="#linearGradient1454"
       y1="-36.549156"
       y2="212.84969"
       gradientTransform="scale(1.0821339,0.92410009)"
       gradientUnits="userSpaceOnUse" />
    <linearGradient
       id="linearGradient1460"
       x1="53.363991"
       x2="23.525993"
       xlink:href="#linearGradient1461"
       y1="92.357613"
       y2="24.791574"
       gradientTransform="scale(0.94258539,1.0609118)"
       gradientUnits="userSpaceOnUse" />
    <linearGradient
       id="linearGradient1465"
       x1="65.168541"
       x2="65.168541"
       xlink:href="#linearGradient1494"
       y1="21.990849"
       y2="101.36213"
       gradientTransform="scale(1.1616729,0.86082756)"
       gradientUnits="userSpaceOnUse" />
    <linearGradient
       id="linearGradient1466"
       x1="45.732868"
       x2="108.11694"
       xlink:href="#linearGradient1461"
       y1="71.280991"
       y2="69.933556"
       gradientTransform="scale(1.1616729,0.86082756)"
       gradientUnits="userSpaceOnUse" />
    <linearGradient
       id="linearGradient1467"
       x1="53.532402"
       x2="107.76475"
       xlink:href="#linearGradient1461"
       y1="79.705803"
       y2="81.942039"
       gradientTransform="scale(1.162445,0.86025572)"
       gradientUnits="userSpaceOnUse" />
    <linearGradient
       id="linearGradient1468"
       x1="47.377068"
       x2="98.116547"
       xlink:href="#linearGradient1461"
       y1="83.987053"
       y2="80.400337"
       gradientTransform="scale(1.162003,0.86058301)"
       gradientUnits="userSpaceOnUse" />
    <linearGradient
       id="linearGradient1469"
       x1="70.402908"
       x2="83.794678"
       xlink:href="#linearGradient1494"
       y1="62.953205"
       y2="95.92305"
       gradientTransform="scale(1.1795988,0.84774589)"
       gradientUnits="userSpaceOnUse" />
    <linearGradient
       id="linearGradient1471"
       x1="62.787212"
       x2="36.218346"
       xlink:href="#linearGradient1546"
       y1="40.752804"
       y2="133.32637"
       gradientTransform="scale(1.3294867,0.75217002)"
       gradientUnits="userSpaceOnUse" />
    <linearGradient
       id="linearGradient1500"
       x1="52.276608"
       x2="52.276608"
       xlink:href="#linearGradient1494"
       y1="95.058693"
       y2="154.0751"
       gradientTransform="scale(1.2892438,0.77564848)"
       gradientUnits="userSpaceOnUse" />
    <linearGradient
       id="linearGradient1501"
       x1="67.895309"
       x2="70.216118"
       xlink:href="#linearGradient1494"
       y1="50.378345"
       y2="94.908958"
       gradientTransform="scale(1.2039801,0.83057848)"
       gradientUnits="userSpaceOnUse" />
    <linearGradient
       id="linearGradient1550"
       x1="56.644173"
       x2="54.877079"
       xlink:href="#linearGradient1502"
       y1="175.6649"
       y2="135.49483"
       gradientTransform="scale(1.6363277,0.61112452)"
       gradientUnits="userSpaceOnUse" />
    <linearGradient
       id="linearGradient1555"
       x1="81.611031"
       x2="75.607834"
       xlink:href="#linearGradient1494"
       y1="86.461479"
       y2="50.772297"
       gradientTransform="scale(1.162003,0.86058301)"
       gradientUnits="userSpaceOnUse" />
    <linearGradient
       inkscape:collect="always"
       x1="271.01999"
       y1="-441.04999"
       x2="285.03"
       gradientUnits="userSpaceOnUse"
       xlink:href="#linearGradient8302"
       y2="-431.97"
       id="linearGradient8688" />
    <linearGradient
       inkscape:collect="always"
       x1="287.51999"
       y1="-439.75"
       x2="289.67999"
       gradientUnits="userSpaceOnUse"
       xlink:href="#linearGradient8302"
       y2="-436.32001"
       id="linearGradient8690" />
    <linearGradient
       inkscape:collect="always"
       x1="286.51001"
       y1="-441.29001"
       x2="289.85001"
       gradientUnits="userSpaceOnUse"
       xlink:href="#linearGradient8302"
       y2="-436.14001"
       id="linearGradient8692" />
    <linearGradient
       inkscape:collect="always"
       x1="285.94"
       y1="-439.94"
       x2="289.39001"
       gradientUnits="userSpaceOnUse"
       xlink:href="#linearGradient8302"
       y2="-436.44"
       id="linearGradient8694" />
    <linearGradient
       inkscape:collect="always"
       x1="275.94"
       y1="-437.10999"
       x2="279.98001"
       gradientUnits="userSpaceOnUse"
       xlink:href="#linearGradient8302"
       y2="-431.92001"
       id="linearGradient8696" />
    <linearGradient
       inkscape:collect="always"
       x1="286.67001"
       y1="-439.48001"
       x2="289.76999"
       gradientUnits="userSpaceOnUse"
       xlink:href="#linearGradient8302"
       y2="-436.70999"
       id="linearGradient8698" />
    <linearGradient
       inkscape:collect="always"
       x1="284.79999"
       y1="-441.23001"
       x2="288.89999"
       gradientUnits="userSpaceOnUse"
       xlink:href="#linearGradient8302"
       y2="-436.82999"
       id="linearGradient8700" />
    <linearGradient
       inkscape:collect="always"
       xlink:href="#linearGradient8302"
       id="linearGradient12230"
       gradientUnits="userSpaceOnUse"
       x1="271.01999"
       y1="-441.04999"
       x2="285.03"
       y2="-431.97" />
    <linearGradient
       inkscape:collect="always"
       xlink:href="#linearGradient8302"
       id="linearGradient12232"
       gradientUnits="userSpaceOnUse"
       x1="287.51999"
       y1="-439.75"
       x2="289.67999"
       y2="-436.32001" />
    <linearGradient
       inkscape:collect="always"
       xlink:href="#linearGradient8302"
       id="linearGradient12234"
       gradientUnits="userSpaceOnUse"
       x1="286.51001"
       y1="-441.29001"
       x2="289.85001"
       y2="-436.14001" />
    <linearGradient
       inkscape:collect="always"
       xlink:href="#linearGradient8302"
       id="linearGradient12236"
       gradientUnits="userSpaceOnUse"
       x1="285.94"
       y1="-439.94"
       x2="289.39001"
       y2="-436.44" />
    <linearGradient
       inkscape:collect="always"
       xlink:href="#linearGradient8302"
       id="linearGradient12238"
       gradientUnits="userSpaceOnUse"
       x1="275.94"
       y1="-437.10999"
       x2="279.98001"
       y2="-431.92001" />
    <linearGradient
       inkscape:collect="always"
       xlink:href="#linearGradient8302"
       id="linearGradient12240"
       gradientUnits="userSpaceOnUse"
       x1="286.67001"
       y1="-439.48001"
       x2="289.76999"
       y2="-436.70999" />
    <linearGradient
       inkscape:collect="always"
       xlink:href="#linearGradient8302"
       id="linearGradient12242"
       gradientUnits="userSpaceOnUse"
       x1="284.79999"
       y1="-441.23001"
       x2="288.89999"
       y2="-436.82999" />
    <linearGradient
       id="linearGradient1507-2"
       x1="182.83171"
       x2="205.01576"
       xlink:href="#linearGradient1502"
       y1="175.80453"
       y2="309.7991"
       gradientTransform="scale(1.0229615,0.97755389)"
       gradientUnits="userSpaceOnUse" />
    <linearGradient
       inkscape:collect="always"
       xlink:href="#linearGradient1502"
       id="linearGradient9595"
       x1="179.83603"
       y1="178.66377"
       x2="200.25708"
       y2="302.00961"
       gradientTransform="scale(1.0307763,0.97014256)"
       gradientUnits="userSpaceOnUse" />
    <linearGradient
       inkscape:collect="always"
       xlink:href="#linearGradient1502"
       id="linearGradient9597"
       x1="178.64998"
       y1="179.87531"
       x2="198.41255"
       y2="299.24384"
       gradientTransform="scale(1.0344279,0.96671791)"
       gradientUnits="userSpaceOnUse" />
    <linearGradient
       inkscape:collect="always"
       xlink:href="#linearGradient1502"
       id="linearGradient9599"
       x1="181.35898"
       y1="177.20132"
       x2="202.65994"
       y2="305.862"
       gradientTransform="scale(1.0266786,0.97401464)"
       gradientUnits="userSpaceOnUse" />
    <linearGradient
       inkscape:collect="always"
       xlink:href="#linearGradient1502"
       id="linearGradient9601"
       x1="182.83171"
       y1="175.80453"
       x2="205.01576"
       y2="309.7991"
       gradientTransform="scale(1.0229615,0.97755389)"
       gradientUnits="userSpaceOnUse" />
    <linearGradient
       inkscape:collect="always"
       xlink:href="#linearGradient1502"
       id="linearGradient9603"
       x1="177.86382"
       y1="181.42772"
       x2="197.19273"
       y2="298.17697"
       gradientTransform="scale(1.0368908,0.96442172)"
       gradientUnits="userSpaceOnUse" />
    <linearGradient
       inkscape:collect="always"
       xlink:href="#linearGradient8302"
       id="linearGradient13522"
       gradientUnits="userSpaceOnUse"
       x1="271.01999"
       y1="-441.04999"
       x2="285.03"
       y2="-431.97" />
    <linearGradient
       inkscape:collect="always"
       xlink:href="#linearGradient8302"
       id="linearGradient13524"
       gradientUnits="userSpaceOnUse"
       x1="287.51999"
       y1="-439.75"
       x2="289.67999"
       y2="-436.32001" />
    <linearGradient
       inkscape:collect="always"
       xlink:href="#linearGradient8302"
       id="linearGradient13526"
       gradientUnits="userSpaceOnUse"
       x1="286.51001"
       y1="-441.29001"
       x2="289.85001"
       y2="-436.14001" />
    <linearGradient
       inkscape:collect="always"
       xlink:href="#linearGradient8302"
       id="linearGradient13528"
       gradientUnits="userSpaceOnUse"
       x1="285.94"
       y1="-439.94"
       x2="289.39001"
       y2="-436.44" />
    <linearGradient
       inkscape:collect="always"
       xlink:href="#linearGradient8302"
       id="linearGradient13530"
       gradientUnits="userSpaceOnUse"
       x1="275.94"
       y1="-437.10999"
       x2="279.98001"
       y2="-431.92001" />
    <linearGradient
       inkscape:collect="always"
       xlink:href="#linearGradient8302"
       id="linearGradient13532"
       gradientUnits="userSpaceOnUse"
       x1="286.67001"
       y1="-439.48001"
       x2="289.76999"
       y2="-436.70999" />
    <linearGradient
       inkscape:collect="always"
       xlink:href="#linearGradient8302"
       id="linearGradient13534"
       gradientUnits="userSpaceOnUse"
       x1="284.79999"
       y1="-441.23001"
       x2="288.89999"
       y2="-436.82999" />
  </defs>
  <sodipodi:namedview
     id="base"
     bordercolor="#666666"
     inkscape:pageshadow="2"
     inkscape:window-y="0"
     fit-margin-left="10"
     pagecolor="#ffffff"
     inkscape:window-height="1125"
     inkscape:window-maximized="1"
     inkscape:zoom="0.62548332"
     inkscape:window-x="0"
     showgrid="false"
     borderopacity="1.0"
     inkscape:current-layer="layer1-9"
     inkscape:cx="20.819171"
     inkscape:cy="-46.620456"
     fit-margin-top="10"
     fit-margin-right="10"
     fit-margin-bottom="10"
     inkscape:window-width="1920"
     inkscape:pageopacity="0.0"
     inkscape:document-units="px" />
  <g
     id="layer1"
     inkscape:label="Layer 1"
     inkscape:groupmode="layer"
     transform="translate(43.381161,-8.1730663)">
    <g
       transform="matrix(0.21121353,0,0,0.21121353,81.053878,-108.72136)"
       id="g3933">
      <g
         id="g10003"
         transform="matrix(0.78356257,0.13519812,-0.13519812,0.78356257,184.23041,514.17736)" />
    </g>
    <g
       inkscape:label="Layer 1"
       id="layer1-9"
       transform="translate(864.80614,-65.666155)">
      <g
         id="g13536"
         transform="matrix(2.7051509,0,0,2.7051509,1313.1374,-144.8028)">
        <g
           id="g13478"
           transform="matrix(3.255909,0,0,3.255909,-1662.2518,1536.6564)">
          <path
             id="path13480"
             style="fill:#c4c5c2;stroke:#888a85;stroke-miterlimit:2"
             sodipodi:nodetypes="ccsscsssscsscc"
             inkscape:connector-curvature="0"
             d="m 280.5,-445.5 c -2.2708,0 -4.1099,1.5503 -4.7188,3.625 -0.69323,-0.36383 -1.4445,-0.625 -2.2812,-0.625 -2.76,0 -5,2.24 -5,5 0,0.57893 0.16252,1.1077 0.34375,1.625 -1.3735,0.77074 -2.3438,2.189 -2.3438,3.875 0,2.484 2.016,4.5 4.5,4.5 l 19,0 c 2.484,0 4.5,-2.016 4.5,-4.5 0,-1.686 -0.97028,-3.1043 -2.3438,-3.875 0.18124,-0.51729 0.34375,-1.0461 0.34375,-1.625 0,-2.76 -2.24,-5 -5,-5 -0.83674,0 -1.588,0.26117 -2.2812,0.625 -0.60884,-2.0747 -2.4479,-3.625 -4.7188,-3.625 z" />
          <path
             id="path13482"
             style="fill:url(#linearGradient13522)"
             sodipodi:nodetypes="ccsscsssscsscc"
             inkscape:connector-curvature="0"
             d="m 280.5,-445 c -2.1897,0 -3.7236,1.3358 -4.3956,3.8435 -0.66846,-0.34362 -1.5476,-0.83335 -2.3544,-0.83335 -2.7165,0 -4.7551,1.9388 -4.7551,4.5455 0,0.54677 0.26721,1.3334 0.44196,1.822 -1.3244,0.72795 -2.4368,1.8905 -2.4368,3.3726 0,2.346 1.5462,4.2501 4.3393,4.2501 l 18.321,0 c 2.771,0 4.3393,-1.904 4.3393,-4.2501 0,-1.5924 -1.1124,-2.6667 -2.4368,-3.3946 0.17476,-0.48856 0.46407,-1.2532 0.46407,-1.7999 0,-2.6067 -2.1158,-4.5676 -4.7772,-4.5676 -0.80687,0 -1.6418,0.48974 -2.3103,0.83336 -0.65,-2.42 -2.25,-3.82 -4.44,-3.82 z" />
          <g
             id="g13484">
            <circle
               r="3.3125"
               cy="-437.59375"
               cx="288.375"
               id="circle13486"
               style="fill:#c4c5c2"
               transform="matrix(1.0566,0,0,1.0566,-24.198,21.863)" />
            <circle
               r="3.3125"
               cy="-437.59375"
               cx="288.375"
               id="circle13488"
               style="fill:url(#linearGradient13524)"
               transform="matrix(1.0566,0,0,1.0566,-24.198,21.863)" />
          </g>
          <rect
             id="rect13490"
             style="fill:#c4c5c2"
             height="9"
             width="20"
             y="-438"
             x="271" />
          <circle
             r="3.3125"
             cy="-437.59375"
             cx="288.375"
             id="circle13492"
             style="fill:#c4c5c2"
             transform="matrix(0.90566,0,0,0.90566,9.8302,-35.689)" />
          <g
             id="g13494">
            <circle
               r="3.3125"
               cy="-437.59375"
               cx="288.375"
               id="circle13496"
               style="fill:#c4c5c2"
               transform="matrix(1.0566,0,0,1.0566,-17.198,24.863)" />
            <circle
               r="3.3125"
               cy="-437.59375"
               cx="288.375"
               id="circle13498"
               style="fill:url(#linearGradient13526)"
               transform="matrix(1.0566,0,0,1.0566,-17.198,24.863)" />
          </g>
          <g
             id="g13500">
            <circle
               r="3.3125"
               cy="-437.59375"
               cx="288.375"
               id="circle13502"
               style="fill:#c4c5c2"
               transform="matrix(1.0566,0,0,1.0566,-31.198,24.863)" />
            <circle
               r="3.3125"
               cy="-437.59375"
               cx="288.375"
               id="circle13504"
               style="fill:url(#linearGradient13528)"
               transform="matrix(1.0566,0,0,1.0566,-31.198,24.863)" />
          </g>
          <g
             id="g13506"
             transform="translate(-1,0)">
            <path
               id="path13508"
               d="m 280.47,-440.97 c -3.5794,0 -6.4688,2.9206 -6.4688,6.5 0,2.3707 1.3494,4.3378 3.25,5.4688 l 6.4688,0 c 1.9006,-1.131 3.25,-3.1293 3.25,-5.5 0,-3.5794 -2.9206,-6.4688 -6.5,-6.4688 z"
               style="fill:#c4c5c2"
               inkscape:connector-curvature="0" />
            <path
               id="path13510"
               d="m 280.5,-441 c -3.588,0 -6.5,2.912 -6.5,6.5 0,2.3764 1.3448,4.3663 3.25,5.5 l 6.5,0 c 1.9052,-1.1337 3.25,-3.1236 3.25,-5.5 0,-3.588 -2.912,-6.5 -6.5,-6.5 z"
               style="fill:url(#linearGradient13530)"
               inkscape:connector-curvature="0" />
          </g>
          <circle
             r="3.3125"
             cy="-437.59375"
             cx="288.375"
             id="circle13512"
             style="fill:url(#linearGradient13532)"
             transform="matrix(0.90566,0,0,0.90566,9.8303,-35.689)" />
          <path
             id="path13514"
             style="fill:#888a85;fill-rule:evenodd"
             sodipodi:nodetypes="ccss"
             inkscape:connector-curvature="0"
             d="m 292.96,-437.33 c -0.002,2.6846 -3.2693,3.714 -3.2693,3.714 0,0 2.3487,-1.626 2.3368,-3.705 l 0.93241,-0.009 z" />
          <g
             id="g13516"
             transform="matrix(1.1429,0,0,1.1429,-28.571,67)">
            <circle
               r="3.3125"
               cy="-437.59375"
               cx="288.375"
               id="circle13518"
               style="fill:#c4c5c2"
               transform="matrix(1.0566,0,0,1.0566,-31.198,24.863)" />
            <circle
               r="3.3125"
               cy="-437.59375"
               cx="288.375"
               id="circle13520"
               style="fill:url(#linearGradient13534)"
               transform="matrix(1.0566,0,0,1.0566,-31.198,24.863)" />
          </g>
        </g>
        <g
           transform="matrix(3.255909,0,0,3.255909,-1630.0766,1570.83)"
           id="g7794">
          <path
             d="m 280.5,-445.5 c -2.2708,0 -4.1099,1.5503 -4.7188,3.625 -0.69323,-0.36383 -1.4445,-0.625 -2.2812,-0.625 -2.76,0 -5,2.24 -5,5 0,0.57893 0.16252,1.1077 0.34375,1.625 -1.3735,0.77074 -2.3438,2.189 -2.3438,3.875 0,2.484 2.016,4.5 4.5,4.5 l 19,0 c 2.484,0 4.5,-2.016 4.5,-4.5 0,-1.686 -0.97028,-3.1043 -2.3438,-3.875 0.18124,-0.51729 0.34375,-1.0461 0.34375,-1.625 0,-2.76 -2.24,-5 -5,-5 -0.83674,0 -1.588,0.26117 -2.2812,0.625 -0.60884,-2.0747 -2.4479,-3.625 -4.7188,-3.625 z"
             inkscape:connector-curvature="0"
             sodipodi:nodetypes="ccsscsssscsscc"
             style="fill:#c4c5c2;stroke:#888a85;stroke-miterlimit:2"
             id="path7796" />
          <path
             d="m 280.5,-445 c -2.1897,0 -3.7236,1.3358 -4.3956,3.8435 -0.66846,-0.34362 -1.5476,-0.83335 -2.3544,-0.83335 -2.7165,0 -4.7551,1.9388 -4.7551,4.5455 0,0.54677 0.26721,1.3334 0.44196,1.822 -1.3244,0.72795 -2.4368,1.8905 -2.4368,3.3726 0,2.346 1.5462,4.2501 4.3393,4.2501 l 18.321,0 c 2.771,0 4.3393,-1.904 4.3393,-4.2501 0,-1.5924 -1.1124,-2.6667 -2.4368,-3.3946 0.17476,-0.48856 0.46407,-1.2532 0.46407,-1.7999 0,-2.6067 -2.1158,-4.5676 -4.7772,-4.5676 -0.80687,0 -1.6418,0.48974 -2.3103,0.83336 -0.65,-2.42 -2.25,-3.82 -4.44,-3.82 z"
             inkscape:connector-curvature="0"
             sodipodi:nodetypes="ccsscsssscsscc"
             style="fill:url(#linearGradient12230)"
             id="path7798" />
          <g
             id="g7800">
            <circle
               transform="matrix(1.0566,0,0,1.0566,-24.198,21.863)"
               style="fill:#c4c5c2"
               id="path7802"
               cx="288.375"
               cy="-437.59375"
               r="3.3125" />
            <circle
               transform="matrix(1.0566,0,0,1.0566,-24.198,21.863)"
               style="fill:url(#linearGradient12232)"
               id="path7804"
               cx="288.375"
               cy="-437.59375"
               r="3.3125" />
          </g>
          <rect
             x="271"
             y="-438"
             width="20"
             height="9"
             style="fill:#c4c5c2"
             id="rect7806" />
          <circle
             transform="matrix(0.90566,0,0,0.90566,9.8302,-35.689)"
             style="fill:#c4c5c2"
             id="path7808"
             cx="288.375"
             cy="-437.59375"
             r="3.3125" />
          <g
             id="g7810">
            <circle
               transform="matrix(1.0566,0,0,1.0566,-17.198,24.863)"
               style="fill:#c4c5c2"
               id="path7812"
               cx="288.375"
               cy="-437.59375"
               r="3.3125" />
            <circle
               transform="matrix(1.0566,0,0,1.0566,-17.198,24.863)"
               style="fill:url(#linearGradient12234)"
               id="path7814"
               cx="288.375"
               cy="-437.59375"
               r="3.3125" />
          </g>
          <g
             id="g7816">
            <circle
               transform="matrix(1.0566,0,0,1.0566,-31.198,24.863)"
               style="fill:#c4c5c2"
               id="path7818"
               cx="288.375"
               cy="-437.59375"
               r="3.3125" />
            <circle
               transform="matrix(1.0566,0,0,1.0566,-31.198,24.863)"
               style="fill:url(#linearGradient12236)"
               id="path7820"
               cx="288.375"
               cy="-437.59375"
               r="3.3125" />
          </g>
          <g
             transform="translate(-1,0)"
             id="g7822">
            <path
               inkscape:connector-curvature="0"
               style="fill:#c4c5c2"
               d="m 280.47,-440.97 c -3.5794,0 -6.4688,2.9206 -6.4688,6.5 0,2.3707 1.3494,4.3378 3.25,5.4688 l 6.4688,0 c 1.9006,-1.131 3.25,-3.1293 3.25,-5.5 0,-3.5794 -2.9206,-6.4688 -6.5,-6.4688 z"
               id="path7824" />
            <path
               inkscape:connector-curvature="0"
               style="fill:url(#linearGradient12238)"
               d="m 280.5,-441 c -3.588,0 -6.5,2.912 -6.5,6.5 0,2.3764 1.3448,4.3663 3.25,5.5 l 6.5,0 c 1.9052,-1.1337 3.25,-3.1236 3.25,-5.5 0,-3.588 -2.912,-6.5 -6.5,-6.5 z"
               id="path7826" />
          </g>
          <circle
             transform="matrix(0.90566,0,0,0.90566,9.8303,-35.689)"
             style="fill:url(#linearGradient12240)"
             id="path7828"
             cx="288.375"
             cy="-437.59375"
             r="3.3125" />
          <path
             d="m 292.96,-437.33 c -0.002,2.6846 -3.2693,3.714 -3.2693,3.714 0,0 2.3487,-1.626 2.3368,-3.705 l 0.93241,-0.009 z"
             inkscape:connector-curvature="0"
             sodipodi:nodetypes="ccss"
             style="fill:#888a85;fill-rule:evenodd"
             id="path7830" />
          <g
             transform="matrix(1.1429,0,0,1.1429,-28.571,67)"
             id="g7832">
            <circle
               transform="matrix(1.0566,0,0,1.0566,-31.198,24.863)"
               style="fill:#c4c5c2"
               id="path7834"
               cx="288.375"
               cy="-437.59375"
               r="3.3125" />
            <circle
               transform="matrix(1.0566,0,0,1.0566,-31.198,24.863)"
               style="fill:url(#linearGradient12242)"
               id="path7836"
               cx="288.375"
               cy="-437.59375"
               r="3.3125" />
          </g>
        </g>
        <g
           transform="matrix(0.50178998,0,0,0.50178998,-775.91787,80.490263)"
           id="g9511">
          <title
             id="title9513">Layer 1</title>
          <g
             style="fill:url(#linearGradient1507-2)"
             transform="matrix(1.084455,0,0,1.043417,-102.286,-115.3176)"
             id="g1583">
            <path
               style="fill:url(#linearGradient9595);fill-rule:evenodd;stroke-width:1pt"
               inkscape:connector-curvature="0"
               id="path1557"
               d="m 187.3221,244.31589 34.25383,-85.18386 0,-10.817 -73.46544,-12.16913 -41.46516,80.22606 0.90142,10.36631 79.77535,17.57762 z" />
            <path
               style="fill:url(#linearGradient9597);fill-rule:evenodd;stroke-width:1pt"
               inkscape:connector-curvature="0"
               id="path1562"
               d="m 108.34375,216.71875 c 0.72103,2.87033 -0.69789,8.43124 2.87454,9.09036 25.02098,5.51155 50.04196,11.0231 75.06296,16.53464 11.19792,-27.89583 22.39583,-55.79167 33.59375,-83.6875 -0.15593,-2.83109 0.7119,-7.01428 -0.9743,-9.0318 -23.27939,-3.86439 -46.5588,-7.72881 -69.8382,-11.5932 -13.57292,26.22917 -27.14583,52.45833 -40.71875,78.6875 z" />
            <path
               style="fill:url(#linearGradient9599);fill-rule:evenodd;stroke-width:1pt"
               inkscape:connector-curvature="0"
               id="path1567"
               d="m 146.6875,134.03125 c -14.05849,27.51462 -28.35222,55.01916 -42.28125,82.53125 0.49896,4.07347 -0.12248,8.95914 2.21875,12.34375 27.3548,6.00745 54.70461,12.03863 82.0625,18.03125 11.71201,-29.26578 23.51718,-58.52116 35.125,-87.8125 0,-4.27083 0,-8.54167 0,-12.8125 -25.65035,-4.18855 -51.28958,-8.45093 -76.9375,-12.65625 l -0.1875,0.375 z" />
            <path
               style="fill:url(#linearGradient9601);fill-rule:evenodd;stroke-width:1pt"
               inkscape:connector-curvature="0"
               id="path1576"
               d="m 145.4375,131.53125 c -14.39455,28.38821 -29.01667,56.77031 -43.28125,85.15625 0.48682,4.95065 0.042,10.80189 3.96875,14.46875 27.97978,6.13251 55.9547,12.28822 83.9375,18.40625 12.00532,-30.14012 24.09952,-60.27155 36,-90.4375 0,-4.9375 0,-9.875 0,-14.8125 -26.81685,-4.35623 -53.62306,-8.78336 -80.4375,-13.15625 l -0.1875,0.375 z" />
            <path
               style="fill:url(#linearGradient9603);fill-rule:evenodd;stroke-width:1pt"
               inkscape:connector-curvature="0"
               id="path1582"
               d="m 109.46821,217.57928 c 0.31941,3.11898 -0.13182,8.49828 4.37478,8.34292 23.91674,5.28152 47.83348,10.56304 71.75023,15.84458 11.05207,-27.5625 22.10417,-55.125 33.15625,-82.6875 0.0414,-2.97207 1.15493,-8.4234 -3.42826,-8.15974 -21.8781,-3.64467 -43.75618,-7.28934 -65.63424,-10.93401 -13.40625,25.86458 -26.81251,51.72918 -40.21876,77.59375 z" />
          </g>
          <path
             style="fill:#525252;fill-rule:evenodd;stroke-width:1pt"
             inkscape:connector-curvature="0"
             id="path1432"
             d="m 99.636574,138.8932 37.146736,-92.378048 0,-11.730545 -79.669979,-13.196867 -44.967088,87.00156 0.97754,11.24177 86.512791,19.06213 z" />
          <path
             style="fill:url(#linearGradient1458);fill-rule:evenodd;stroke-width:1pt"
             inkscape:connector-curvature="0"
             id="path1433"
             d="M 13.094133,108.24368 99.147804,127.65144 136.29454,35.762162 57.479911,22.443101 13.094133,108.24368 Z" />
          <path
             style="fill:url(#linearGradient1471);fill-rule:evenodd;stroke-width:1pt"
             inkscape:connector-curvature="0"
             id="path1470"
             d="m 40.006294,71.931343 -7.820374,2.93264 -12.708088,24.927422 5.865271,10.264215 34.214102,7.82036 5.865265,-2.93263 3.910179,1.46632 1.734123,4.00385 21.994781,4.88772 9.996427,-9.86912 10.753,-26.393728 -7.33159,0 c -2.44387,0 -18.736304,10.18277 -38.124282,5.376503 C 48.478353,89.608628 42.124304,75.189835 40.006292,71.931344 Z" />
          <path
             style="fill:url(#linearGradient1555);fill-rule:evenodd;stroke:url(#linearGradient1468);stroke-width:0.89126003"
             inkscape:connector-curvature="0"
             id="path1439"
             d="M 100.72395,37.017479 C 81.542351,32.294083 51.992302,36.787071 43.351944,57.063118 34.711571,76.647949 55.621254,92.085403 69.618645,94.735107 84.652878,97.384834 110.40116,91.854988 119.04152,75.03508 128.02751,58.215172 120.25118,41.740883 100.72395,37.017479 Z" />
          <path
             style="fill:url(#linearGradient1550);fill-rule:evenodd;stroke-width:1pt"
             inkscape:connector-curvature="0"
             id="path1554"
             d="m 106.46721,103.14789 -5.07372,0 C 79.537461,115.63705 43.240822,104.31875 35.825386,86.755859 l -8.196012,0.390289 3.122288,-7.80574 7.415445,-1.951424 c 6.244576,14.960976 32.784058,31.483106 65.568113,16.782318 l 7.02514,-0.390289 -4.29315,9.366877 z" />
          <path
             style="fill-opacity:0.25;fill-rule:evenodd;stroke:url(#linearGradient1467);stroke-width:0.72149599"
             inkscape:connector-curvature="0"
             id="path1438"
             d="M 100.96834,34.86541 C 81.786728,30.142019 52.236694,34.63501 43.596321,54.911057 34.955963,74.495888 55.865646,89.933335 69.863029,92.583054 84.897262,95.232758 110.64555,89.702935 119.28591,72.883019 128.2719,56.063111 120.49556,39.588822 100.96834,34.86541 Z" />
          <path
             style="fill:url(#linearGradient1465);fill-rule:evenodd;stroke:url(#linearGradient1466);stroke-width:1.01858306"
             inkscape:connector-curvature="0"
             id="path1437"
             d="M 101.52321,31.885378 C 82.341599,27.161989 52.791565,31.654978 44.151196,51.93103 35.510827,71.515854 56.420502,86.953308 70.417901,89.603019 85.452134,92.252731 111.20041,86.7229 119.84079,69.902992 128.82675,53.08308 121.05043,36.60878 101.52321,31.885378 Z" />
          <path
             style="fill-opacity:0.45833297;fill-rule:evenodd;stroke-width:1pt"
             inkscape:connector-curvature="0"
             id="path1435"
             d="M 81.855682,46.61731 C 72.961181,47.407631 68.196228,54.16436 68.52375,58.674279 68.801193,62.494782 71.006439,70.593468 83.520363,69.540322 95.861923,68.49968 97.744049,60.219674 97.071831,55.734788 96.794388,51.914292 90.220604,45.692201 81.855683,46.617311 Z" />
          <path
             style="fill:url(#linearGradient1469);fill-rule:evenodd;stroke-width:1pt"
             inkscape:connector-curvature="0"
             id="path1436"
             d="m 81.849251,46.708931 c -8.894493,0.790321 -13.659447,7.54705 -13.331932,12.056969 0.277451,3.820499 5.9394,9.415749 14.981224,8.268234 9.054329,-0.975189 14.239075,-6.722843 13.566856,-11.207726 -0.277435,-3.820496 -6.851234,-10.042587 -15.216148,-9.117477 z" />
          <path
             style="fill:url(#linearGradient1460);fill-rule:evenodd;stroke-width:5.3125;stroke-linecap:round;stroke-linejoin:round"
             inkscape:connector-curvature="0"
             id="path1440"
             d="M 41.091995,75.637184 32.04969,83.45755 c -6.235727,5.60984 -0.531977,18.55688 5.620895,22.48355 l 0.244385,5.62088 4.643341,1.22194 2.688255,-4.15457 11.97493,2.68825 5.132118,-12.219319 c -18.206795,3.462139 -23.949875,-9.694 -14.052223,-14.663177 -3.625069,-2.688263 -5.783806,-5.376511 -7.209396,-8.79792 z" />
          <path
             style="fill-opacity:0.30208297;fill-rule:evenodd;stroke-width:1pt"
             inkscape:connector-curvature="0"
             id="path1434"
             d="m 59.943214,83.900383 c -3.036369,1.43969 -7.48391,0.230408 -10.019783,2.419296 -2.683769,2.361702 -4.603966,6.624283 0.827934,10.541252 5.62962,4.089769 10.700424,1.81218 14.908188,-2.073692 L 92.043724,70.42141 88.735474,70.248604 59.943215,83.900383 Z" />
          <path
             style="fill:#fff8d2;fill-opacity:0.54166697;fill-rule:evenodd;stroke-width:1pt"
             inkscape:connector-curvature="0"
             id="path1441"
             d="m 82.880989,52.500069 c -2.311081,-0.03579 -6.523895,0.996613 -6.566681,4.147373 0.07941,3.150768 4.976471,4.823776 7.776337,4.492989 2.922043,-0.330795 5.55864,-1.982838 5.357025,-5.01141 -0.201622,-2.906384 -4.377792,-3.593159 -6.566681,-3.628952 z" />
          <path
             style="fill:url(#linearGradient1500);fill-rule:evenodd;stroke-width:1pt"
             inkscape:connector-curvature="0"
             id="path1499"
             d="m 58.909157,82.990303 c -3.243851,1.43969 -7.51712,0.230408 -10.368443,2.419296 -3.02412,2.361702 -5.558632,6.624283 -0.691219,10.541245 5.040207,4.089766 10.439255,1.812187 15.207043,-2.073685 L 92.952195,69.51133 89.668839,69.338524 58.909157,82.990303 Z" />
          <path
             style="fill:url(#linearGradient1501);fill-rule:evenodd;stroke-width:1pt"
             inkscape:connector-curvature="0"
             id="path1508"
             d="m 84.84996,49.600151 c -0.967636,0 -1.750702,0.531738 -1.750702,1.188335 0,0.656612 0.783066,1.188351 1.750702,1.188351 0.967628,0 1.750694,-0.531738 1.750694,-1.188351 0,-0.656597 -0.783051,-1.188335 -1.750694,-1.188335 z m -7.883423,1.41116 c -0.967613,0 -1.750679,0.531727 -1.750679,1.188351 0,0.656601 0.783066,1.188339 1.750679,1.188339 0.967644,0 1.761314,-0.531738 1.761314,-1.188339 0,-0.656609 -0.793671,-1.188351 -1.761314,-1.188351 z m 15.098381,2.620731 c -0.967628,0 -1.761299,0.531738 -1.761299,1.188335 0,0.656612 0.793671,1.188351 1.761299,1.188351 0.967636,0 1.750694,-0.531738 1.750694,-1.188351 0,-0.656597 -0.783058,-1.188351 -1.750694,-1.188335 z m -17.84642,3.183067 c -0.967636,0 -1.750694,0.531738 -1.750694,1.188347 0,0.656601 0.783066,1.188354 1.750694,1.188347 0.967636,0 1.750687,-0.531746 1.750687,-1.188347 0,-0.656609 -0.783051,-1.188347 -1.750687,-1.188347 z m 14.419312,3.543823 c -0.967628,0 -1.750687,0.531738 -1.750687,1.188347 0,0.656601 0.783058,1.188354 1.750687,1.188354 0.967628,0 1.750694,-0.531754 1.750694,-1.188354 0,-0.656609 -0.783051,-1.188347 -1.750694,-1.188347 z m -8.180489,1.580925 c -0.967644,0 -1.761299,0.531727 -1.761307,1.188347 0,0.656593 0.793663,1.198959 1.761307,1.198959 0.967628,0 1.750679,-0.542366 1.750687,-1.198959 0,-0.65662 -0.783058,-1.188347 -1.750687,-1.188347 z" />
          <path
             style="fill:url(#linearGradient1457);fill-rule:evenodd;stroke-width:1pt"
             inkscape:connector-curvature="0"
             id="path1589"
             d="m 13.232233,110.0092 0.625,8.75 69.687498,15.3125 -70.312498,-24.0625 z" />
        </g>
        <g
           transform="matrix(3.0132537,0,0,2.7509839,-1618.975,1350.2289)"
           id="g7852">
          <path
             d="m 280.5,-445.5 c -2.2708,0 -4.1099,1.5503 -4.7188,3.625 -0.69323,-0.36383 -1.4445,-0.625 -2.2812,-0.625 -2.76,0 -5,2.24 -5,5 0,0.57893 0.16252,1.1077 0.34375,1.625 -1.3735,0.77074 -2.3438,2.189 -2.3438,3.875 0,2.484 2.016,4.5 4.5,4.5 l 19,0 c 2.484,0 4.5,-2.016 4.5,-4.5 0,-1.686 -0.97028,-3.1043 -2.3438,-3.875 0.18124,-0.51729 0.34375,-1.0461 0.34375,-1.625 0,-2.76 -2.24,-5 -5,-5 -0.83674,0 -1.588,0.26117 -2.2812,0.625 -0.60884,-2.0747 -2.4479,-3.625 -4.7188,-3.625 z"
             inkscape:connector-curvature="0"
             sodipodi:nodetypes="ccsscsssscsscc"
             style="fill:#c4c5c2;stroke:#888a85;stroke-miterlimit:2"
             id="path7854" />
          <path
             d="m 280.5,-445 c -2.1897,0 -3.7236,1.3358 -4.3956,3.8435 -0.66846,-0.34362 -1.5476,-0.83335 -2.3544,-0.83335 -2.7165,0 -4.7551,1.9388 -4.7551,4.5455 0,0.54677 0.26721,1.3334 0.44196,1.822 -1.3244,0.72795 -2.4368,1.8905 -2.4368,3.3726 0,2.346 1.5462,4.2501 4.3393,4.2501 l 18.321,0 c 2.771,0 4.3393,-1.904 4.3393,-4.2501 0,-1.5924 -1.1124,-2.6667 -2.4368,-3.3946 0.17476,-0.48856 0.46407,-1.2532 0.46407,-1.7999 0,-2.6067 -2.1158,-4.5676 -4.7772,-4.5676 -0.80687,0 -1.6418,0.48974 -2.3103,0.83336 -0.65,-2.42 -2.25,-3.82 -4.44,-3.82 z"
             inkscape:connector-curvature="0"
             sodipodi:nodetypes="ccsscsssscsscc"
             style="fill:url(#linearGradient8688)"
             id="path7856" />
          <g
             id="g7858">
            <circle
               transform="matrix(1.0566,0,0,1.0566,-24.198,21.863)"
               style="fill:#c4c5c2"
               id="path7860"
               cx="288.375"
               cy="-437.59375"
               r="3.3125" />
            <circle
               transform="matrix(1.0566,0,0,1.0566,-24.198,21.863)"
               style="fill:url(#linearGradient8690)"
               id="path7862"
               cx="288.375"
               cy="-437.59375"
               r="3.3125" />
          </g>
          <rect
             x="271"
             y="-438"
             width="20"
             height="9"
             style="fill:#c4c5c2"
             id="rect7864" />
          <circle
             transform="matrix(0.90566,0,0,0.90566,9.8302,-35.689)"
             style="fill:#c4c5c2"
             id="path7866"
             cx="288.375"
             cy="-437.59375"
             r="3.3125" />
          <g
             id="g7868">
            <circle
               transform="matrix(1.0566,0,0,1.0566,-17.198,24.863)"
               style="fill:#c4c5c2"
               id="path7870"
               cx="288.375"
               cy="-437.59375"
               r="3.3125" />
            <circle
               transform="matrix(1.0566,0,0,1.0566,-17.198,24.863)"
               style="fill:url(#linearGradient8692)"
               id="path7872"
               cx="288.375"
               cy="-437.59375"
               r="3.3125" />
          </g>
          <g
             id="g7874">
            <circle
               transform="matrix(1.0566,0,0,1.0566,-31.198,24.863)"
               style="fill:#c4c5c2"
               id="path7876"
               cx="288.375"
               cy="-437.59375"
               r="3.3125" />
            <circle
               transform="matrix(1.0566,0,0,1.0566,-31.198,24.863)"
               style="fill:url(#linearGradient8694)"
               id="path7878"
               cx="288.375"
               cy="-437.59375"
               r="3.3125" />
          </g>
          <g
             transform="translate(-1,0)"
             id="g7880">
            <path
               inkscape:connector-curvature="0"
               style="fill:#c4c5c2"
               d="m 280.47,-440.97 c -3.5794,0 -6.4688,2.9206 -6.4688,6.5 0,2.3707 1.3494,4.3378 3.25,5.4688 l 6.4688,0 c 1.9006,-1.131 3.25,-3.1293 3.25,-5.5 0,-3.5794 -2.9206,-6.4688 -6.5,-6.4688 z"
               id="path7882" />
            <path
               inkscape:connector-curvature="0"
               style="fill:url(#linearGradient8696)"
               d="m 280.5,-441 c -3.588,0 -6.5,2.912 -6.5,6.5 0,2.3764 1.3448,4.3663 3.25,5.5 l 6.5,0 c 1.9052,-1.1337 3.25,-3.1236 3.25,-5.5 0,-3.588 -2.912,-6.5 -6.5,-6.5 z"
               id="path7884" />
          </g>
          <circle
             transform="matrix(0.90566,0,0,0.90566,9.8303,-35.689)"
             style="fill:url(#linearGradient8698)"
             id="path7886"
             cx="288.375"
             cy="-437.59375"
             r="3.3125" />
          <path
             d="m 292.96,-437.33 c -0.002,2.6846 -3.2693,3.714 -3.2693,3.714 0,0 2.3487,-1.626 2.3368,-3.705 l 0.93241,-0.009 z"
             inkscape:connector-curvature="0"
             sodipodi:nodetypes="ccss"
             style="fill:#888a85;fill-rule:evenodd"
             id="path7888" />
          <g
             transform="matrix(1.1429,0,0,1.1429,-28.571,67)"
             id="g7890">
            <circle
               transform="matrix(1.0566,0,0,1.0566,-31.198,24.863)"
               style="fill:#c4c5c2"
               id="path7892"
               cx="288.375"
               cy="-437.59375"
               r="3.3125" />
            <circle
               transform="matrix(1.0566,0,0,1.0566,-31.198,24.863)"
               style="fill:url(#linearGradient8700)"
               id="path7896"
               cx="288.375"
               cy="-437.59375"
               r="3.3125" />
          </g>
        </g>
      </g>
    </g>
  </g>
  <metadata
     id="metadata1088">
    <rdf:RDF>
      <cc:Work>
        <dc:format>image/svg+xml</dc:format>
        <dc:type
           rdf:resource="http://purl.org/dc/dcmitype/StillImage" />
        <cc:license
           rdf:resource="http://creativecommons.org/publicdomain/zero/1.0/" />
        <dc:publisher>
          <cc:Agent
             rdf:about="http://openclipart.org/">
            <dc:title>Openclipart</dc:title>
          </cc:Agent>
        </dc:publisher>
        <dc:title>cloud drive</dc:title>
        <dc:date />
        <dc:description>Cloud drive illustration - standard HDD lying on gray clouds :-)</dc:description>
        <dc:source />
        <dc:creator>
          <cc:Agent>
            <dc:title>Jan Helebrant</dc:title>
          </cc:Agent>
        </dc:creator>
        <dc:subject>
          <rdf:Bag>
            <rdf:li>cloud</rdf:li>
            <rdf:li>drive</rdf:li>
            <rdf:li>storage</rdf:li>
            <rdf:li>HDD</rdf:li>
            <rdf:li>memory</rdf:li>
            <rdf:li>internet</rdf:li>
          </rdf:Bag>
        </dc:subject>
      </cc:Work>
      <cc:License
         rdf:about="http://creativecommons.org/publicdomain/zero/1.0/">
        <cc:permits
           rdf:resource="http://creativecommons.org/ns#Reproduction" />
        <cc:permits
           rdf:resource="http://creativecommons.org/ns#Distribution" />
        <cc:permits
           rdf:resource="http://creativecommons.org/ns#DerivativeWorks" />
      </cc:License>
    </rdf:RDF>
  </metadata>
</svg>
